<svg width="266" height="193" viewBox="0 0 266 193" fill="none" xmlns="http://www.w3.org/2000/svg">
<path d="M83 1H69V49H83V1Z" fill="black"/>
<path d="M112 66H69V80H112V66Z" fill="black"/>
<path d="M139 1H124V67H115V80H148V67H139V1Z" fill="black"/>
<path d="M198 1H151V14H198V1Z" fill="black"/>
<path d="M181.5 30H167V80.5H182L181.5 30Z" fill="black"/>
<path d="M56 0V15.5H34V33.5H65V48H34V66H56V80H18V0H56Z" fill="black"/>
<path d="M238 1H202V80H238V66H215.5V47H248V34H215.5V14H238V1Z" fill="black"/>
<path d="M54.5 112H0V97.5H54.5V112Z" fill="black"/>
<path d="M36 131H19V191H36V131Z" fill="black"/>
<path d="M103.5 97.5H59.5V191H103.5V174.5H77V152H115V136H77V113H103.5V97.5Z" fill="black"/>
<path d="M190 134H173V114H165C149.4 113.6 140.833 124.167 138.5 129.5C135.833 133.667 132.1 145.1 138.5 157.5C144.9 169.9 158.833 174 165 174.5H190V192H165C133.4 192.8 121.167 169.333 119 157.5C117.167 145.5 116.9 119.1 130.5 109.5C144.1 99.9 159.167 97.5 165 97.5H190V134Z" fill="black"/>
<path d="M212 137H195V97.5H212V137Z" fill="black"/>
<path d="M249 156H195V191H212V174.5H249V191H266V97.5H249V156Z" fill="black"/>
</svg>
